<svg xmlns="http://www.w3.org/2000/svg" viewBox="0 0 300 150" width="100%" height="100%">
  <line x1="150" y1="15" x2="150" y2="135" stroke="#E4E4E7" stroke-dasharray="3 3" />
  <text x="75" y="142" text-anchor="middle" font-size="10" font-family="system-ui, sans-serif" font-weight="600" fill="#71717A">START</text>
  <text x="225" y="142" text-anchor="middle" font-size="10" font-family="system-ui, sans-serif" font-weight="600" fill="#71717A">MID</text>
  <!-- START -->
  <g>
    <!-- Bike Frame & Fan Wheel -->
    <circle cx="38" cy="92" r="16" fill="none" stroke="#52525B" stroke-width="2" />
    <line x1="38" y1="92" x2="38" y2="76" stroke="#52525B" stroke-width="1" />
    <line x1="38" y1="92" x2="52" y2="92" stroke="#52525B" stroke-width="1" />
    <path d="M38,92 L65,92 L78,65" stroke="#71717A" stroke-width="2.5" stroke-linecap="round" stroke-linejoin="round" fill="none" />
    <line x1="72" y1="65" x2="84" y2="65" stroke="#52525B" stroke-width="3" stroke-linecap="round" />
    <!-- Handles -->
    <line x1="48" y1="42" x2="62" y2="92" stroke="#71717A" stroke-width="2" />
    <!-- Rider -->
    <circle cx="78" cy="35" r="6" fill="#18181B" />
    <line x1="78" y1="41" x2="78" y2="68" stroke="#18181B" stroke-width="2.5" stroke-linecap="round" />
    <path d="M78,68 L72,92 L70,114" stroke="#18181B" stroke-width="2.5" stroke-linecap="round" stroke-linejoin="round" fill="none" />
    <path d="M78,48 L48,45" stroke="#18181B" stroke-width="2.5" stroke-linecap="round" />
  </g>
  <!-- MID -->
  <g>
    <!-- Bike Frame & Fan Wheel -->
    <circle cx="188" cy="92" r="16" fill="none" stroke="#52525B" stroke-width="2" />
    <line x1="188" y1="92" x2="188" y2="76" stroke="#52525B" stroke-width="1" />
    <line x1="188" y1="92" x2="202" y2="92" stroke="#52525B" stroke-width="1" />
    <path d="M188,92 L215,92 L228,65" stroke="#71717A" stroke-width="2.5" stroke-linecap="round" stroke-linejoin="round" fill="none" />
    <line x1="222" y1="65" x2="234" y2="65" stroke="#52525B" stroke-width="3" stroke-linecap="round" />
    <!-- Handles opposite -->
    <line x1="208" y1="42" x2="212" y2="92" stroke="#71717A" stroke-width="2" />
    <!-- Rider opposite stride -->
    <circle cx="228" cy="35" r="6" fill="#18181B" />
    <line x1="228" y1="41" x2="228" y2="68" stroke="#18181B" stroke-width="2.5" stroke-linecap="round" />
    <path d="M228,68 L215,80 L212,98" stroke="#18181B" stroke-width="2.5" stroke-linecap="round" stroke-linejoin="round" fill="none" />
    <path d="M228,48 L202,46" stroke="#18181B" stroke-width="2.5" stroke-linecap="round" />
    <path d="M172,92 A16,16 0 0,1 188,76" stroke="#C25E3E" stroke-width="1.5" fill="none" stroke-dasharray="2 2" />
    <polygon points="189,74 193,79 187,80" fill="#C25E3E" />
  </g>
</svg>