<svg xmlns="http://www.w3.org/2000/svg" viewBox="0 0 300 150" width="100%" height="100%">
  <line x1="150" y1="15" x2="150" y2="135" stroke="#E4E4E7" stroke-dasharray="3 3" />
  <text x="75" y="142" text-anchor="middle" font-size="10" font-family="system-ui, sans-serif" font-weight="600" fill="#71717A">START</text>
  <text x="225" y="142" text-anchor="middle" font-size="10" font-family="system-ui, sans-serif" font-weight="600" fill="#71717A">MID</text>
  <!-- START -->
  <g>
    <!-- Cable Tower Left -->
    <line x1="20" y1="20" x2="20" y2="125" stroke="#71717A" stroke-width="3" />
    <line x1="15" y1="125" x2="25" y2="125" stroke="#71717A" stroke-width="3" />
    <circle cx="20" cy="115" r="3" fill="#52525B" />
    <!-- Person -->
    <circle cx="75" cy="28" r="6" fill="#18181B" />
    <line x1="75" y1="34" x2="75" y2="75" stroke="#18181B" stroke-width="2.5" stroke-linecap="round" />
    <path d="M75,75 L68,100 L68,125 M75,75 L82,100 L82,125" stroke="#18181B" stroke-width="2.5" stroke-linecap="round" stroke-linejoin="round" fill="none" />
    <path d="M75,42 L66,62 L60,82" stroke="#18181B" stroke-width="2.5" stroke-linecap="round" stroke-linejoin="round" fill="none" />
    <!-- Cable line -->
    <line x1="20" y1="115" x2="60" y2="82" stroke="#52525B" stroke-width="1.5" />
    <line x1="56" y1="82" x2="64" y2="82" stroke="#52525B" stroke-width="3" stroke-linecap="round" />
  </g>
  <!-- MID -->
  <g>
    <!-- Cable Tower Left -->
    <line x1="170" y1="20" x2="170" y2="125" stroke="#71717A" stroke-width="3" />
    <line x1="165" y1="125" x2="175" y2="125" stroke="#71717A" stroke-width="3" />
    <circle cx="170" cy="115" r="3" fill="#52525B" />
    <!-- Person -->
    <circle cx="225" cy="28" r="6" fill="#18181B" />
    <line x1="225" y1="34" x2="225" y2="75" stroke="#18181B" stroke-width="2.5" stroke-linecap="round" />
    <path d="M225,75 L218,100 L218,125 M225,75 L232,100 L232,125" stroke="#18181B" stroke-width="2.5" stroke-linecap="round" stroke-linejoin="round" fill="none" />
    <path d="M225,42 L217,65 L213,45" stroke="#18181B" stroke-width="2.5" stroke-linecap="round" stroke-linejoin="round" fill="none" />
    <!-- Cable line -->
    <line x1="170" y1="115" x2="213" y2="45" stroke="#52525B" stroke-width="1.5" />
    <line x1="209" y1="45" x2="217" y2="45" stroke="#52525B" stroke-width="3" stroke-linecap="round" />
    <path d="M198,78 A18,18 0 0,1 202,48" stroke="#C25E3E" stroke-width="1.5" stroke-dasharray="2 2" fill="none" />
    <polygon points="199,50 203,44 206,49" fill="#C25E3E" />
  </g>
</svg>