<svg xmlns="http://www.w3.org/2000/svg" viewBox="0 0 300 150" width="100%" height="100%">
  <line x1="150" y1="15" x2="150" y2="135" stroke="#E4E4E7" stroke-dasharray="3 3" />
  <text x="75" y="142" text-anchor="middle" font-size="10" font-family="system-ui, sans-serif" font-weight="600" fill="#71717A">START</text>
  <text x="225" y="142" text-anchor="middle" font-size="10" font-family="system-ui, sans-serif" font-weight="600" fill="#71717A">MID</text>
  <g>
    <line x1="45" y1="50" x2="70" y2="95" stroke="#71717A" stroke-width="4" stroke-linecap="round" />
    <line x1="70" y1="95" x2="90" y2="95" stroke="#71717A" stroke-width="4" stroke-linecap="round" />
    <circle cx="48" cy="40" r="6" fill="#18181B" />
    <path d="M 52 46 L 72 92" stroke="#18181B" stroke-width="2.8" stroke-linecap="round" fill="none" />
    <path d="M 72 92 L 92 92 M 72 92 L 78 122" stroke="#18181B" stroke-width="2.5" stroke-linecap="round" stroke-linejoin="round" fill="none" />
    <path d="M 58 55 L 72 65 L 75 58" stroke="#18181B" stroke-width="2.5" stroke-linecap="round" stroke-linejoin="round" fill="none" />
    <line x1="75" y1="58" x2="95" y2="35" stroke="#52525B" stroke-width="3" stroke-linecap="round" />
    <rect x="71" y="54" width="8" height="8" rx="2" fill="#52525B" />
  </g>
  <g>
    <line x1="195" y1="50" x2="220" y2="95" stroke="#71717A" stroke-width="4" stroke-linecap="round" />
    <line x1="220" y1="95" x2="240" y2="95" stroke="#71717A" stroke-width="4" stroke-linecap="round" />
    <circle cx="198" cy="40" r="6" fill="#18181B" />
    <path d="M 202 46 L 222 92" stroke="#18181B" stroke-width="2.8" stroke-linecap="round" fill="none" />
    <path d="M 222 92 L 242 92 M 222 92 L 228 122" stroke="#18181B" stroke-width="2.5" stroke-linecap="round" stroke-linejoin="round" fill="none" />
    <path d="M 208 55 L 230 42 L 242 32" stroke="#18181B" stroke-width="2.5" stroke-linecap="round" stroke-linejoin="round" fill="none" />
    <line x1="220" y1="58" x2="245" y2="30" stroke="#52525B" stroke-width="3" stroke-linecap="round" />
    <rect x="238" y="28" width="8" height="8" rx="2" fill="#52525B" />
    <path d="M 215 52 L 242 32" stroke="#C25E3E" stroke-width="1.8" stroke-dasharray="2 2" stroke-linecap="round" fill="none" />
    <circle cx="212" cy="54" r="3.5" fill="#C25E3E" opacity="0.8" />
  </g>
</svg>
