<svg xmlns="http://www.w3.org/2000/svg" viewBox="0 0 300 150" width="100%" height="100%">
  <line x1="150" y1="15" x2="150" y2="135" stroke="#E4E4E7" stroke-dasharray="3 3" />
  <text x="75" y="142" text-anchor="middle" font-size="10" font-family="system-ui, sans-serif" font-weight="600" fill="#71717A">START</text>
  <text x="225" y="142" text-anchor="middle" font-size="10" font-family="system-ui, sans-serif" font-weight="600" fill="#71717A">MID</text>
  <g>
    <line x1="75" y1="30" x2="75" y2="90" stroke="#71717A" stroke-width="4" stroke-linecap="round" />
    <line x1="60" y1="90" x2="90" y2="90" stroke="#71717A" stroke-width="3" stroke-linecap="round" />
    <circle cx="75" cy="35" r="6" fill="#18181B" />
    <line x1="75" y1="41" x2="75" y2="85" stroke="#18181B" stroke-width="2.8" stroke-linecap="round" />
    <path d="M 75 85 L 65 125 M 75 85 L 85 125" stroke="#18181B" stroke-width="2.5" stroke-linecap="round" stroke-linejoin="round" />
    <path d="M 75 48 L 42 48 L 42 70" stroke="#18181B" stroke-width="2.5" stroke-linecap="round" stroke-linejoin="round" fill="none" />
    <path d="M 75 48 L 108 48 L 108 70" stroke="#18181B" stroke-width="2.5" stroke-linecap="round" stroke-linejoin="round" fill="none" />
    <line x1="42" y1="40" x2="42" y2="75" stroke="#52525B" stroke-width="4" stroke-linecap="round" />
    <line x1="108" y1="40" x2="108" y2="75" stroke="#52525B" stroke-width="4" stroke-linecap="round" />
  </g>
  <g>
    <line x1="225" y1="30" x2="225" y2="90" stroke="#71717A" stroke-width="4" stroke-linecap="round" />
    <line x1="210" y1="90" x2="240" y2="90" stroke="#71717A" stroke-width="3" stroke-linecap="round" />
    <circle cx="225" cy="35" r="6" fill="#18181B" />
    <line x1="225" y1="41" x2="225" y2="85" stroke="#18181B" stroke-width="2.8" stroke-linecap="round" />
    <path d="M 225 85 L 215 125 M 225 85 L 235 125" stroke="#18181B" stroke-width="2.5" stroke-linecap="round" stroke-linejoin="round" />
    <path d="M 225 48 L 215 58 L 221 68" stroke="#18181B" stroke-width="2.5" stroke-linecap="round" stroke-linejoin="round" fill="none" />
    <path d="M 225 48 L 235 58 L 229 68" stroke="#18181B" stroke-width="2.5" stroke-linecap="round" stroke-linejoin="round" fill="none" />
    <line x1="220" y1="40" x2="220" y2="75" stroke="#52525B" stroke-width="4" stroke-linecap="round" />
    <line x1="230" y1="40" x2="230" y2="75" stroke="#52525B" stroke-width="4" stroke-linecap="round" />
    <path d="M 192 48 A 30 30 0 0 0 218 68" stroke="#C25E3E" stroke-width="1.5" stroke-dasharray="2 2" fill="none" />
    <path d="M 258 48 A 30 30 0 0 1 232 68" stroke="#C25E3E" stroke-width="1.5" stroke-dasharray="2 2" fill="none" />
    <circle cx="225" cy="54" r="4" fill="#C25E3E" opacity="0.7" />
  </g>
</svg>
