<svg xmlns="http://www.w3.org/2000/svg" viewBox="0 0 300 150" width="100%" height="100%">
  <line x1="150" y1="15" x2="150" y2="135" stroke="#E4E4E7" stroke-dasharray="3 3" />
  <text x="75" y="142" text-anchor="middle" font-size="10" font-family="system-ui, sans-serif" font-weight="600" fill="#71717A">START</text>
  <text x="225" y="142" text-anchor="middle" font-size="10" font-family="system-ui, sans-serif" font-weight="600" fill="#71717A">MID</text>
  <g>
    <line x1="85" y1="15" x2="85" y2="125" stroke="#71717A" stroke-width="3" />
    <circle cx="85" cy="20" r="3" fill="#52525B" />
    <circle cx="63" cy="38" r="6" fill="#18181B" />
    <line x1="63" y1="44" x2="60" y2="80" stroke="#18181B" stroke-width="2.5" stroke-linecap="round" />
    <path d="M60,80 L56,102 L56,125 M60,80 L66,102 L66,125" stroke="#18181B" stroke-width="2.5" stroke-linecap="round" stroke-linejoin="round" fill="none" />
    <path d="M63,48 L72,62 L74,55" stroke="#18181B" stroke-width="2.5" stroke-linecap="round" stroke-linejoin="round" fill="none" />
    <line x1="85" y1="20" x2="74" y2="55" stroke="#52525B" stroke-width="1.5" />
    <path d="M 72 55 L 76 57" stroke="#52525B" stroke-width="3" stroke-linecap="round" />
  </g>
  <g>
    <line x1="235" y1="15" x2="235" y2="125" stroke="#71717A" stroke-width="3" />
    <circle cx="235" cy="20" r="3" fill="#52525B" />
    <circle cx="213" cy="38" r="6" fill="#18181B" />
    <line x1="213" y1="44" x2="210" y2="80" stroke="#18181B" stroke-width="2.5" stroke-linecap="round" />
    <path d="M210,80 L206,102 L206,125 M210,80 L216,102 L216,125" stroke="#18181B" stroke-width="2.5" stroke-linecap="round" stroke-linejoin="round" fill="none" />
    <path d="M213,48 L221,68 L220,92 M213,48 L221,68 L230,92" stroke="#18181B" stroke-width="2.5" stroke-linecap="round" stroke-linejoin="round" fill="none" />
    <line x1="235" y1="20" x2="225" y2="92" stroke="#52525B" stroke-width="1.5" />
    <path d="M 218 92 L 232 92" stroke="#52525B" stroke-width="3" stroke-linecap="round" />
    <path d="M 228 58 L 232 82" stroke="#C25E3E" stroke-width="1.5" stroke-dasharray="2 2" fill="none" />
    <circle cx="218" cy="60" r="3.5" fill="#C25E3E" />
  </g>
</svg>
