<svg xmlns="http://www.w3.org/2000/svg" viewBox="0 0 300 150" width="100%" height="100%">
  <line x1="150" y1="15" x2="150" y2="135" stroke="#E4E4E7" stroke-dasharray="3 3" />
  <text x="75" y="142" text-anchor="middle" font-size="10" font-family="system-ui, sans-serif" font-weight="600" fill="#71717A">START</text>
  <text x="225" y="142" text-anchor="middle" font-size="10" font-family="system-ui, sans-serif" font-weight="600" fill="#71717A">MID</text>
  <g>
    <line x1="20" y1="70" x2="20" y2="125" stroke="#52525B" stroke-width="3" stroke-linecap="round" />
    <circle cx="20" cy="70" r="3" fill="#71717A" />
    <line x1="60" y1="95" x2="105" y2="95" stroke="#71717A" stroke-width="4" stroke-linecap="round" />
    <line x1="110" y1="80" x2="110" y2="105" stroke="#71717A" stroke-width="3" />
    <circle cx="75" cy="50" r="6" fill="#18181B" />
    <line x1="75" y1="56" x2="75" y2="95" stroke="#18181B" stroke-width="2.8" stroke-linecap="round" />
    <path d="M 75 95 L 108 90" stroke="#18181B" stroke-width="2.5" stroke-linecap="round" fill="none" />
    <path d="M 75 62 L 35 70" stroke="#18181B" stroke-width="2.5" stroke-linecap="round" fill="none" />
    <line x1="20" y1="70" x2="35" y2="70" stroke="#71717A" stroke-width="1.8" stroke-dasharray="2 2" />
    <rect x="30" y="66" width="8" height="8" rx="2" fill="#52525B" />
  </g>
  <g>
    <line x1="170" y1="70" x2="170" y2="125" stroke="#52525B" stroke-width="3" stroke-linecap="round" />
    <circle cx="170" cy="70" r="3" fill="#71717A" />
    <line x1="210" y1="95" x2="255" y2="95" stroke="#71717A" stroke-width="4" stroke-linecap="round" />
    <line x1="260" y1="80" x2="260" y2="105" stroke="#71717A" stroke-width="3" />
    <circle cx="225" cy="50" r="6" fill="#18181B" />
    <line x1="225" y1="56" x2="225" y2="95" stroke="#18181B" stroke-width="2.8" stroke-linecap="round" />
    <path d="M 225 95 L 258 90" stroke="#18181B" stroke-width="2.5" stroke-linecap="round" fill="none" />
    <path d="M 225 62 L 242 70 L 226 70" stroke="#18181B" stroke-width="2.5" stroke-linecap="round" stroke-linejoin="round" fill="none" />
    <line x1="170" y1="70" x2="226" y2="70" stroke="#71717A" stroke-width="1.8" stroke-dasharray="2 2" />
    <rect x="222" y="66" width="8" height="8" rx="2" fill="#52525B" />
    <path d="M 185 70 L 222 70" stroke="#C25E3E" stroke-width="1.8" stroke-dasharray="2 2" fill="none" />
    <path d="M 218 58 C 224 58 226 64 222 72" stroke="#C25E3E" stroke-width="2" stroke-linecap="round" fill="none" />
  </g>
</svg>
