<svg xmlns="http://www.w3.org/2000/svg" viewBox="0 0 300 150" width="100%" height="100%">
  <line x1="150" y1="15" x2="150" y2="135" stroke="#E4E4E7" stroke-dasharray="3 3" />
  <text x="75" y="142" text-anchor="middle" font-size="10" font-family="system-ui, sans-serif" font-weight="600" fill="#71717A">START</text>
  <text x="225" y="142" text-anchor="middle" font-size="10" font-family="system-ui, sans-serif" font-weight="600" fill="#71717A">MID</text>
  <g>
    <line x1="20" y1="15" x2="20" y2="125" stroke="#52525B" stroke-width="3" stroke-linecap="round" />
    <circle cx="20" cy="120" r="3" fill="#71717A" />
    <circle cx="75" cy="40" r="6" fill="#18181B" />
    <line x1="75" y1="46" x2="75" y2="85" stroke="#18181B" stroke-width="2.8" stroke-linecap="round" />
    <path d="M 75 85 L 68 125 M 75 85 L 82 125" stroke="#18181B" stroke-width="2.5" stroke-linecap="round" stroke-linejoin="round" fill="none" />
    <path d="M 75 52 L 55 95" stroke="#18181B" stroke-width="2.5" stroke-linecap="round" fill="none" />
    <line x1="20" y1="120" x2="55" y2="95" stroke="#71717A" stroke-width="1.8" stroke-dasharray="2 2" />
    <rect x="51" y="91" width="8" height="8" rx="2" fill="#52525B" />
  </g>
  <g>
    <line x1="170" y1="15" x2="170" y2="125" stroke="#52525B" stroke-width="3" stroke-linecap="round" />
    <circle cx="170" cy="120" r="3" fill="#71717A" />
    <circle cx="225" cy="40" r="6" fill="#18181B" />
    <line x1="225" y1="46" x2="225" y2="85" stroke="#18181B" stroke-width="2.8" stroke-linecap="round" />
    <path d="M 225 85 L 218 125 M 225 85 L 232 125" stroke="#18181B" stroke-width="2.5" stroke-linecap="round" stroke-linejoin="round" fill="none" />
    <path d="M 225 52 L 270 55" stroke="#18181B" stroke-width="2.5" stroke-linecap="round" fill="none" />
    <line x1="170" y1="120" x2="270" y2="55" stroke="#71717A" stroke-width="1.8" stroke-dasharray="2 2" />
    <rect x="266" y="51" width="8" height="8" rx="2" fill="#52525B" />
    <path d="M 205 95 A 50 50 0 0 1 268 57" stroke="#C25E3E" stroke-width="1.8" stroke-dasharray="2 2" fill="none" />
    <circle cx="232" cy="50" r="3.5" fill="#C25E3E" />
  </g>
</svg>
